<svg width="50" height="50" viewBox="0 0 50 50" fill="none" xmlns="http://www.w3.org/2000/svg">
<g filter="url(#filter0_d_1_3076)">
<rect x="5" y="3" width="40" height="40" rx="20" fill="white"/>
<path fill-rule="evenodd" clip-rule="evenodd" d="M31.5333 15.5333H27.632C27.24 14.4507 26.2133 13.6667 25 13.6667C23.7866 13.6667 22.76 14.4507 22.368 15.5333H18.4666C17.44 15.5333 16.6 16.3733 16.6 17.4V30.4667C16.6 31.4933 17.44 32.3333 18.4666 32.3333H31.5333C32.56 32.3333 33.4 31.4933 33.4 30.4667V17.4C33.4 16.3733 32.56 15.5333 31.5333 15.5333ZM25 15.5333C25.5133 15.5333 25.9333 15.9533 25.9333 16.4667C25.9333 16.98 25.5133 17.4 25 17.4C24.4866 17.4 24.0666 16.98 24.0666 16.4667C24.0666 15.9533 24.4866 15.5333 25 15.5333ZM25.9333 28.6H21.2666C20.7533 28.6 20.3333 28.18 20.3333 27.6667C20.3333 27.1533 20.7533 26.7333 21.2666 26.7333H25.9333C26.4466 26.7333 26.8666 27.1533 26.8666 27.6667C26.8666 28.18 26.4466 28.6 25.9333 28.6ZM28.7333 24.8667H21.2666C20.7533 24.8667 20.3333 24.4467 20.3333 23.9333C20.3333 23.42 20.7533 23 21.2666 23H28.7333C29.2466 23 29.6666 23.42 29.6666 23.9333C29.6666 24.4467 29.2466 24.8667 28.7333 24.8667ZM28.7333 21.1333H21.2666C20.7533 21.1333 20.3333 20.7133 20.3333 20.2C20.3333 19.6867 20.7533 19.2667 21.2666 19.2667H28.7333C29.2466 19.2667 29.6666 19.6867 29.6666 20.2C29.6666 20.7133 29.2466 21.1333 28.7333 21.1333Z" fill="#C3CAD9"/>
</g>
<defs>
<filter id="filter0_d_1_3076" x="0" y="0" width="50" height="50" filterUnits="userSpaceOnUse" color-interpolation-filters="sRGB">
<feFlood flood-opacity="0" result="BackgroundImageFix"/>
<feColorMatrix in="SourceAlpha" type="matrix" values="0 0 0 0 0 0 0 0 0 0 0 0 0 0 0 0 0 0 127 0" result="hardAlpha"/>
<feOffset dy="2"/>
<feGaussianBlur stdDeviation="2.5"/>
<feColorMatrix type="matrix" values="0 0 0 0 0.14902 0 0 0 0 0.2 0 0 0 0 0.301961 0 0 0 0.03 0"/>
<feBlend mode="normal" in2="BackgroundImageFix" result="effect1_dropShadow_1_3076"/>
<feBlend mode="normal" in="SourceGraphic" in2="effect1_dropShadow_1_3076" result="shape"/>
</filter>
</defs>
</svg>
