<svg width="50" height="50" viewBox="0 0 50 50" fill="none" xmlns="http://www.w3.org/2000/svg">
<g id="Icon">
<rect id="Base" width="50" height="50" rx="25" fill="#FFCB33"/>
<g id="Icon_2">
<path id="Icon_3" d="M27.2 17.8286C27.8 17.0571 28.2286 16.0286 28.1 15C27.2 15.0429 26.1286 15.6 25.4857 16.3286C24.9286 16.9714 24.4143 18.0429 24.5429 19.0286C25.5715 19.1571 26.5572 18.6 27.2 17.8286Z" fill="white"/>
<path id="Icon_4" d="M28.1 19.2857C26.6429 19.2 25.4 20.1 24.7143 20.1C24.0286 20.1 22.9572 19.3286 21.8 19.3286C20.3 19.3714 18.9286 20.1857 18.1572 21.5572C16.6143 24.2572 17.7286 28.2429 19.2715 30.4286C20 31.5 20.9 32.7 22.0572 32.6572C23.1715 32.6143 23.6 31.9286 24.9286 31.9286C26.2572 31.9286 26.6429 32.6572 27.8429 32.6143C29.0429 32.5714 29.8143 31.5429 30.5429 30.4286C31.4 29.1857 31.7429 27.9857 31.7429 27.9429C31.7 27.9 29.3858 27.0429 29.3858 24.3857C29.3429 22.1572 31.1858 21.0857 31.2715 21.0429C30.2858 19.5 28.6572 19.3286 28.1 19.2857Z" fill="white"/>
</g>
</g>
</svg>
