<svg width="28" height="29" viewBox="0 0 28 29" fill="none" xmlns="http://www.w3.org/2000/svg">
<g id="Icon">
<path id="Icon_2" fill-rule="evenodd" clip-rule="evenodd" d="M18.0055 18.9823V13.373C18.0055 12.8596 17.5855 12.4396 17.0721 12.4396C16.5588 12.4396 16.1388 12.8596 16.1388 13.373V18.9823H14.4681C14.0481 18.9823 13.8428 19.4863 14.1415 19.7756L16.7455 22.3703C16.9321 22.5476 17.2215 22.5476 17.4081 22.3703L20.0121 19.7756C20.3108 19.4863 20.0961 18.9823 19.6855 18.9823H18.0055ZM11.1455 6.23298L8.54146 8.83698C8.24279 9.12631 8.44812 9.63031 8.86812 9.63031H10.5388V15.2396C10.5388 15.753 10.9588 16.173 11.4721 16.173C11.9855 16.173 12.4055 15.753 12.4055 15.2396V9.63031H14.0761C14.4961 9.63031 14.7015 9.12631 14.4028 8.83698L11.7988 6.23298C11.6215 6.05564 11.3228 6.05564 11.1455 6.23298Z" fill="#C3CAD9"/>
</g>
</svg>
