<svg width="50" height="50" viewBox="0 0 50 50" fill="none" xmlns="http://www.w3.org/2000/svg">
<g id="Icon">
<rect id="Base" width="50" height="50" rx="25" fill="#E4E7F0"/>
<g id="Icon_2">
<path id="Icon_3" d="M26.8808 13.0737L26.871 18.5742L26.8611 24.0747L26.4093 22.7978V22.7945L25.8232 35.0397C26.3995 36.6636 26.7072 37.5312 26.7105 37.5345C26.7138 37.5378 27.0412 37.5574 27.4374 37.5771C28.6357 37.636 30.1221 37.7637 31.2517 37.9045C31.5136 37.9372 31.7363 37.9536 31.7526 37.9405C31.769 37.9274 31.7723 32.3287 31.769 25.4957L31.7592 13.0737L26.8808 13.0737Z" fill="#E62E2E"/>
<path id="Icon_4" d="M18.0571 13.0574V25.4924C18.0571 32.332 18.0637 37.934 18.0735 37.9438C18.0833 37.9536 18.5057 37.911 19.0164 37.8554C19.5272 37.7997 20.2311 37.7277 20.5815 37.6982C21.1184 37.6524 22.7293 37.5509 22.9126 37.5476C22.9683 37.5476 22.9716 37.2693 22.9781 32.2796L22.9879 27.0116L23.3775 28.1117C23.4365 28.2819 23.4561 28.3343 23.5151 28.5013L24.1011 16.2594C23.9767 15.9091 24.0422 16.0924 23.9014 15.693C23.4234 14.3408 23.0174 13.1981 23.001 13.1458L22.9683 13.0541H18.0571V13.0574Z" fill="#E62E2E"/>
<path id="Icon_5" d="M26.8808 13.0737L26.871 18.5742L26.8611 24.0747L26.4093 22.7978V22.7945L25.8232 35.0397C26.3995 36.6636 26.7072 37.5312 26.7105 37.5345C26.7138 37.5378 27.0412 37.5574 27.4374 37.5771C28.6357 37.636 30.1221 37.7637 31.2517 37.9045C31.5136 37.9372 31.7363 37.9536 31.7526 37.9405C31.769 37.9274 31.7723 32.3287 31.769 25.4957L31.7592 13.0737L26.8808 13.0737Z" fill="#E62E2E"/>
<path id="Icon_6" d="M18.0571 13.0574V25.4924C18.0571 32.332 18.0637 37.934 18.0735 37.9438C18.0833 37.9536 18.5057 37.911 19.0164 37.8554C19.5272 37.7997 20.2311 37.7277 20.5815 37.6982C21.1184 37.6524 22.7293 37.5509 22.9126 37.5476C22.9683 37.5476 22.9716 37.2693 22.9781 32.2796L22.9879 27.0116L23.3775 28.1117C23.4365 28.2819 23.4561 28.3343 23.5151 28.5013L24.1011 16.2594C23.9767 15.9091 24.0422 16.0924 23.9014 15.693C23.4234 14.3408 23.0174 13.1981 23.001 13.1458L22.9683 13.0541H18.0571V13.0574Z" fill="#E62E2E"/>
<path id="Icon_7" d="M18.0571 13.0574V20.0377L22.9748 33.0817C22.9748 32.7838 22.9748 32.6201 22.9781 32.2796L22.9879 27.0116L23.3775 28.1117C25.5384 34.2408 26.7008 37.528 26.7073 37.5345C26.7106 37.5378 27.038 37.5574 27.4341 37.5771C28.6325 37.636 30.1189 37.7637 31.2485 37.9045C31.5104 37.9372 31.733 37.9536 31.7494 37.9405C31.7592 37.9307 31.7658 35.187 31.7658 31.3137L26.8743 17.2417L26.871 18.5742L26.8612 24.0747L26.4094 22.7978C25.9674 21.5504 25.6727 20.7155 23.8948 15.693C23.4168 14.3408 23.0108 13.1981 22.9945 13.1458L22.9617 13.0541H18.0571V13.0574Z" fill="url(#paint0_radial_1_2852)"/>
<path id="Icon_8" d="M18.0571 13.0574L22.9846 27.0214V27.0148L23.3743 28.1149C25.5384 34.2408 26.7008 37.528 26.7073 37.5345C26.7106 37.5378 27.038 37.5574 27.4341 37.5771C28.6325 37.636 30.1189 37.7637 31.2485 37.9045C31.5071 37.9372 31.733 37.9536 31.7461 37.9405L26.8612 24.0714V24.0747L26.4094 22.7978C25.9674 21.5504 25.6727 20.7155 23.8948 15.693C23.4168 14.3408 23.0108 13.1981 22.9945 13.1458L22.9617 13.0541H20.5094L18.0571 13.0574Z" fill="#E62E2E"/>
</g>
</g>
<defs>
<radialGradient id="paint0_radial_1_2852" cx="0" cy="0" r="1" gradientUnits="userSpaceOnUse" gradientTransform="translate(24.6819 25.3552) rotate(-19.1007) scale(0.903485 1.51809)">
<stop/>
<stop offset="1" stop-opacity="0.01"/>
</radialGradient>
</defs>
</svg>
