<svg width="50" height="50" viewBox="0 0 50 50" fill="none" xmlns="http://www.w3.org/2000/svg">
<g id="Logo" clip-path="url(#clip0_1_2809)">
<rect id="Base" width="50" height="50" rx="25" fill="#106E33"/>
<g id="Icon">
<path id="Icon_2" d="M39.25 25.0254C39.25 32.9094 32.87 39.3008 25 39.3008C17.1299 39.3008 10.75 32.9094 10.75 25.0254C10.75 17.1414 17.13 10.75 25 10.75C32.87 10.75 39.25 17.1414 39.25 25.0254Z" fill="white"/>
<path id="Icon_3" fill-rule="evenodd" clip-rule="evenodd" d="M39.7047 25.8176C39.703 25.772 39.7012 25.7259 39.6998 25.6789L39.698 25.4273C38.703 25.8183 37.9039 25.4138 37.09 25.0018C36.489 24.6975 35.88 24.3892 35.1781 24.3942C35.0107 24.2021 34.9404 23.976 34.8693 23.7474C34.8499 23.6849 34.8304 23.6222 34.8088 23.5599C35.6527 23.2886 36.3663 23.6887 37.0644 24.0802C37.9086 24.5535 38.7302 25.0142 39.7324 24.2595C39.5884 22.0006 39.1063 19.8787 38.0585 17.9876C36.963 15.8293 34.9446 13.7032 32.8345 12.4132C30.6614 10.8801 27.7401 10.1242 24.8492 10.1482C22.4538 10.168 20.0784 10.723 18.1666 11.812C13.4456 14.2039 10.6007 19.0645 10.2318 24.0922L10.365 24.3598C11.3615 24.891 12.1609 24.468 12.9769 24.0363C13.6141 23.6991 14.2614 23.3566 15.0205 23.4593C15.2675 23.5724 15.1699 23.7341 15.0683 23.9024C15.0095 23.9997 14.9494 24.0992 14.9537 24.1929C14.8638 24.415 14.6256 24.4201 14.3875 24.4253C14.2681 24.4279 14.1486 24.4305 14.048 24.4605C13.7841 24.5745 13.5186 24.7123 13.25 24.8517L13.2499 24.8517L13.2499 24.8517L13.2499 24.8517L13.2499 24.8517C12.3135 25.3377 11.3396 25.8432 10.2642 25.4274C10.2721 25.5111 10.2789 25.5949 10.2848 25.6788H10.2827C10.3117 26.0579 10.3652 26.7301 10.3652 26.7301C11.2019 26.9945 11.8792 26.6469 12.5549 26.3001C13.1325 26.0037 13.7089 25.7078 14.3828 25.7954L14.3745 25.8758C14.3439 26.174 14.3123 26.4818 14.1491 26.6958C13.5205 26.7275 13.0023 27.021 12.484 27.3145C11.8977 27.6466 11.3112 27.9787 10.5646 27.9322L10.8328 28.9996C11.4409 29.061 11.9405 28.7801 12.4403 28.4991C12.94 28.2182 13.4398 27.9372 14.048 27.9984L14.016 28.7982C13.4891 28.8472 13.0542 29.1141 12.6195 29.3807C12.1698 29.6566 11.7204 29.9323 11.1699 29.9662C11.256 31.4374 11.9003 31.021 12.6362 30.5454C13.1354 30.2228 13.6767 29.873 14.1146 30.0666C14.1281 30.1478 14.1521 30.2281 14.1761 30.3083C14.231 30.4915 14.2858 30.6745 14.2156 30.8689C13.6887 30.8617 13.2804 31.1362 12.872 31.4108C12.6054 31.59 12.3388 31.7693 12.0392 31.8701C12.0656 31.9315 12.0903 31.9982 12.1156 32.0664C12.2183 32.3438 12.3309 32.6477 12.6079 32.7363C12.8239 32.6473 13.0262 32.5252 13.2285 32.403C13.6329 32.1588 14.0371 31.9148 14.5501 31.9363C14.4611 31.6467 14.3829 31.2571 14.4171 31.0015C15.1554 31.1959 15.6556 30.8041 16.1526 30.4149C16.3089 30.2925 16.4648 30.1704 16.6277 30.0668C16.7347 29.1257 17.2209 28.3382 17.7066 27.5514C17.9278 27.1932 18.1489 26.8351 18.334 26.4627C18.3973 26.1999 18.4185 25.9391 18.4144 25.6787C18.4038 25.1728 18.2901 24.6728 18.1762 24.1719C17.9643 23.2398 17.7516 22.3046 18.2012 21.3224C18.4136 20.7328 18.7822 19.9561 19.4074 19.7887C18.2576 21.1575 18.4702 23.2477 19.0726 24.7942C19.1945 25.1088 19.2379 25.4011 19.2262 25.6788C19.1947 26.4238 18.7579 27.0606 18.323 27.6948C18.0453 28.0995 17.7684 28.5033 17.5981 28.9334C17.0523 30.0353 17.5524 31.2931 18.1668 32.2041C18.0097 32.3251 17.8547 32.452 17.6996 32.5791L17.6995 32.5791C16.9842 33.1651 16.2657 33.7538 15.3208 33.772C15.1054 33.6673 15.0285 33.4357 14.9515 33.2038C14.9129 33.0879 14.8744 32.9719 14.8185 32.8716C14.2501 32.7593 13.7758 33.0678 13.3161 33.3668L13.316 33.3669C13.2256 33.4257 13.1357 33.4842 13.0458 33.539L13.6811 34.3388C13.7795 34.2921 13.8809 34.2342 13.9847 34.175C14.3752 33.9521 14.7993 33.71 15.2221 33.9734C15.6881 34.5228 15.3396 34.5869 14.9324 34.6618C14.6468 34.7143 14.3324 34.7722 14.2498 35.0065C14.4484 35.2746 14.6842 35.4807 14.9311 35.6963L15.0206 35.7747C15.1281 35.7413 15.2284 35.6906 15.3287 35.6399C15.5298 35.5382 15.7313 35.4363 15.9926 35.4729C16.0142 35.499 16.0362 35.5252 16.0582 35.5514C16.1958 35.7149 16.3362 35.8817 16.394 36.0739L15.7906 36.4418C16.2262 36.8868 16.7737 37.31 17.2974 37.5114C17.4664 36.946 17.7882 36.4496 18.11 35.953C18.3842 35.53 18.6585 35.1068 18.8384 34.6409C18.8708 34.4794 18.8935 34.3043 18.916 34.13C18.9479 33.8843 18.9794 33.6403 19.0379 33.4387C19.7001 34.465 19.1564 35.2456 18.5955 36.0512C18.2018 36.6165 17.7995 37.194 17.7995 37.8774C18.0364 38.0908 18.3235 38.2118 18.6029 38.3295L18.6029 38.3295L18.6367 38.3438C18.608 37.511 19.0459 36.8697 19.4848 36.227C19.7316 35.8656 19.9786 35.5038 20.1431 35.1073C20.7111 33.9231 20.0063 33.0407 19.3019 32.1588C18.9673 31.7399 18.6327 31.321 18.4348 30.87C17.8542 29.6007 18.6696 28.409 19.4737 27.4647C20.0335 26.862 20.1788 26.2725 20.1294 25.6795C20.0872 25.17 19.901 24.6597 19.7117 24.1407C19.4022 23.2921 19.0841 22.4202 19.3728 21.4902C19.6409 20.5556 20.0418 19.4421 21.0123 19.0536C20.3089 19.865 19.9406 20.8109 19.8748 21.8899C19.7652 22.7108 20.0866 23.3917 20.4024 24.0608C20.6507 24.5868 20.8956 25.1056 20.9251 25.6795C20.9376 25.9396 20.9063 26.2107 20.8126 26.4977C20.617 26.9195 20.333 27.304 20.0492 27.6881C19.5396 28.378 19.0311 29.0665 19.0378 29.9672C18.9667 30.8691 19.509 31.498 20.0508 32.1263C20.6175 32.7836 21.1837 33.4402 21.0465 34.4081C21.0367 35.1493 20.6467 35.7413 20.2586 36.3306C19.7846 37.0502 19.3133 37.7657 19.54 38.7439L20.5789 39.0798C20.2452 37.9503 20.7639 37.1032 21.2816 36.258C21.6816 35.6049 22.0809 34.9529 22.0857 34.1725C22.1446 33.2846 21.608 32.6461 21.071 32.007C20.6927 31.5567 20.3142 31.1063 20.1433 30.5681C19.7538 29.4111 20.4749 28.4607 21.1507 27.5702C21.2289 27.4672 21.3065 27.3649 21.3817 27.2632C21.7383 26.7101 21.8219 26.1886 21.7648 25.6794C21.7007 25.1231 21.4662 24.5825 21.2281 24.0337L21.2281 24.0337C20.9263 23.3378 20.6187 22.6287 20.6456 21.8578C20.6227 20.5899 21.1802 19.3436 22.2853 18.7543C22.2186 18.8497 22.15 18.9443 22.0815 19.0388L22.0815 19.0388C21.8073 19.417 21.5338 19.7943 21.3817 20.2215C20.8491 21.6594 21.4133 22.9392 21.9614 24.1823C22.1259 24.5556 22.289 24.9255 22.4205 25.2954C22.4627 25.4204 22.4934 25.5489 22.5124 25.6794C22.6369 26.5429 22.1728 27.2246 21.7058 27.9106C21.3699 28.404 21.0325 28.8995 20.9116 29.4665C20.6749 30.4631 21.2323 31.1335 21.7955 31.811C22.1628 32.2527 22.5326 32.6976 22.6864 33.2378C23.1158 34.3834 22.6124 35.2841 22.1053 36.1912C21.6234 37.0534 21.1382 37.9214 21.4481 39.011C21.4403 39.4715 21.8165 39.4839 22.1843 39.496C22.3412 39.5012 22.4966 39.5063 22.62 39.5461C21.912 38.2447 22.5076 37.1034 23.0926 35.9825C23.3375 35.5132 23.5806 35.0474 23.7253 34.5749C24.1038 33.3901 23.4373 32.5616 22.7648 31.7255C22.4644 31.3521 22.1629 30.9772 21.9526 30.5684C21.4905 29.6062 22.0057 28.8802 22.525 28.1484C22.8101 27.7468 23.0964 27.3433 23.223 26.8981C23.4183 26.3407 23.8132 26.4802 24.2039 26.6182C24.4139 26.6924 24.6226 26.7661 24.7984 26.7309C25.0837 26.783 25.3531 26.6957 25.6118 26.612C25.9707 26.4958 26.3088 26.3863 26.64 26.6648C26.7635 27.1688 27.0921 27.5873 27.42 28.0049L27.42 28.0049C27.8301 28.5273 28.2393 29.0485 28.2452 29.7344C28.2258 30.5625 27.6939 31.2198 27.1686 31.8689C26.481 32.7184 25.8049 33.5539 26.3051 34.7396C26.4222 34.975 26.5527 35.2158 26.6857 35.4613C27.3764 36.7363 28.135 38.1367 27.4427 39.5461L28.4793 39.3128C29.0035 38.0067 28.3955 36.9297 27.8028 35.8798C27.6128 35.5432 27.4244 35.2095 27.2753 34.8719C26.8323 33.6084 27.6228 32.5976 28.3857 31.6222C28.5827 31.3703 28.7779 31.1207 28.9495 30.8698C29.5999 29.657 28.8634 28.6226 28.177 27.6587C28.0256 27.4461 27.8767 27.237 27.7457 27.0302C27.4955 26.5588 27.4442 26.1113 27.5051 25.6794C27.5827 25.123 27.8454 24.5903 28.1038 24.0662C28.2707 23.7279 28.4358 23.3931 28.5482 23.0578C29.1623 21.6012 28.8159 19.7891 27.6769 18.6878L27.7112 18.6536C28.2807 18.9876 28.7937 19.5769 29.0504 20.1551C29.7278 21.512 29.2643 22.7617 28.8009 24.0109C28.5958 24.5639 28.3907 25.1169 28.2846 25.6791L28.248 25.8961C28.2263 26.7348 28.666 27.2869 29.1175 27.8539C29.3614 28.1602 29.6088 28.4708 29.7888 28.8333C30.4682 30.1529 29.6609 31.1667 28.874 32.1549L28.874 32.1549C28.6661 32.416 28.4596 32.6753 28.2824 32.938C27.5459 34.1962 28.147 35.1762 28.7603 36.176C29.2913 37.0416 29.8314 37.922 29.5207 39.0109L30.5251 38.6774C30.7306 37.6688 30.161 36.8125 29.6108 35.9852C29.4746 35.7806 29.3397 35.5777 29.218 35.3748C28.5324 33.9891 29.3937 32.8586 30.2088 31.7888C30.4017 31.5355 30.592 31.2857 30.7586 31.0367C31.394 29.6965 30.5937 28.5301 29.8615 27.4629L29.8614 27.4628C29.7062 27.2366 29.5541 27.0149 29.4194 26.7969C29.1728 26.4382 29.095 26.0597 29.1166 25.6792H29.1191C29.1542 25.0445 29.4645 24.4024 29.7375 23.8377L29.7376 23.8373C29.778 23.7539 29.8174 23.6722 29.8551 23.5924C30.4358 22.0342 30.0334 20.1448 29.0183 18.9869C29.6991 19.2655 30.1997 20.023 30.4238 20.6896C31.0186 21.9158 30.6353 23.1421 30.2647 24.3281C30.1344 24.7451 30.0057 25.1571 29.9215 25.5624L29.9192 25.679C29.912 26.5458 30.3872 27.1877 30.8658 27.8342C31.212 28.3018 31.56 28.7718 31.7286 29.3312C32.0379 30.4229 31.4119 31.2497 30.8107 32.0437L30.8106 32.0438C30.6518 32.2536 30.4947 32.4611 30.357 32.6706C29.15 33.9215 29.8305 34.9812 30.5348 36.078C30.9833 36.7763 31.4414 37.4896 31.4282 38.2769C31.4972 38.2479 31.5713 38.2225 31.6463 38.1967L31.6463 38.1967L31.6463 38.1967L31.6464 38.1967L31.6464 38.1967L31.6464 38.1967L31.6464 38.1967L31.6464 38.1967L31.6465 38.1967C31.887 38.1142 32.1373 38.0284 32.2654 37.8081C32.1792 37.1432 31.8075 36.5947 31.4353 36.0453L31.4352 36.0452C31.179 35.6671 30.9225 35.2885 30.7585 34.8712C30.7551 34.7929 30.7493 34.7117 30.7434 34.629C30.7124 34.1954 30.6785 33.7202 30.9606 33.4039L31.027 33.4701C30.9524 34.4639 31.4516 35.2197 31.952 35.9772C32.2745 36.4656 32.5976 36.9546 32.7676 37.5086C32.8224 37.4758 32.8773 37.4432 32.9323 37.4105C33.3838 37.1426 33.8396 36.8721 34.2076 36.4755C34.0523 36.3194 33.8182 36.1976 33.607 36.1076C33.5229 35.9269 33.678 35.752 33.8278 35.5831C33.8808 35.5234 33.933 35.4644 33.9739 35.4062L34.9094 35.7396C34.9684 35.6854 35.0285 35.6334 35.088 35.5818L35.088 35.5818L35.0881 35.5817L35.0881 35.5817L35.0882 35.5817L35.0882 35.5816L35.0882 35.5816L35.0883 35.5816C35.3103 35.3892 35.5249 35.2033 35.6477 34.9398C35.3124 34.7057 34.944 34.5369 34.5424 34.471C34.5297 34.2157 34.6745 34.016 34.8426 33.838C35.342 33.819 35.7462 34.0205 36.1461 34.2199C36.2032 34.2483 36.2601 34.2767 36.3173 34.3044C36.5621 34.0828 36.8325 33.7944 36.9203 33.4727L35.7142 32.8714C35.1894 32.5392 35.088 32.8754 34.9809 33.2304C34.9194 33.4343 34.8561 33.6444 34.7096 33.7376C33.7084 33.6982 32.9629 33.0702 32.2134 32.4389L32.2134 32.4389L32.2134 32.4389L32.2134 32.4389L32.2133 32.4389C32.1192 32.3596 32.025 32.2802 31.9302 32.202C31.9833 31.9322 32.1205 31.6966 32.258 31.4604C32.3809 31.2494 32.504 31.0379 32.5678 30.801C32.9446 29.5471 32.2635 28.5291 31.5982 27.5346L31.5982 27.5346C31.3963 27.2328 31.1959 26.9332 31.0269 26.6298C30.8446 26.3108 30.7769 25.9949 30.779 25.679C30.7821 25.2294 30.9238 24.7807 31.0668 24.3276C31.2056 23.8878 31.3457 23.4439 31.3616 22.9912C31.6351 21.8244 31.1034 20.7019 30.6506 19.7458L30.6235 19.6885C30.9368 19.8779 31.2728 20.132 31.4628 20.4541C32.0872 21.6777 32.2661 23.3816 31.6966 24.6939C31.5564 25.0455 31.5095 25.3725 31.5272 25.679C31.5713 26.4204 31.9975 27.0546 32.4289 27.6967C32.8918 28.3855 33.3607 29.0834 33.3706 29.9324C33.5194 30.0439 33.665 30.172 33.8114 30.3007C34.3233 30.7509 34.8453 31.21 35.547 31.0019C35.5858 31.1865 35.5436 31.3776 35.5024 31.5639L35.5024 31.5639C35.4717 31.7032 35.4415 31.8398 35.4463 31.9689C35.9456 31.9412 36.3417 32.1633 36.7387 32.3859C36.9806 32.5215 37.2229 32.6573 37.4892 32.737C37.534 32.6597 37.5875 32.5824 37.6416 32.5044L37.6416 32.5044C37.7897 32.2906 37.9414 32.0717 37.9254 31.8344C37.5941 31.7368 37.3017 31.544 37.0091 31.3511C36.6022 31.0828 36.195 30.8143 35.6824 30.8012L35.8475 30.0331C36.3873 30.0201 36.8435 30.2789 37.3023 30.5391C37.6318 30.726 37.9626 30.9136 38.3267 31.0019C38.6137 30.7892 38.718 30.4072 38.8142 30.0548L38.8289 30.0008C38.2934 29.9175 37.833 29.6501 37.3725 29.3826C36.9122 29.1154 36.4519 28.8481 35.9165 28.7644C35.9237 28.6766 35.9199 28.5839 35.9162 28.491V28.4909V28.4909V28.4909V28.4908V28.4908V28.4908V28.4907V28.4907C35.9086 28.3029 35.901 28.1145 35.9829 27.9646C36.5697 27.9646 37.0412 28.2363 37.5135 28.5085C37.8584 28.7073 38.2038 28.9063 38.595 29C39.2239 29.2976 39.265 28.8608 39.3049 28.4365C39.3216 28.2587 39.3381 28.083 39.3976 27.9646C38.6608 27.9939 38.0753 27.6537 37.4902 27.3138C36.9493 26.9996 36.4087 26.6855 35.7492 26.6639L35.5814 25.8274C36.2875 25.7116 36.885 26.0163 37.4822 26.3209C38.1401 26.6563 38.7975 26.9916 39.5991 26.7643C39.7281 26.4269 39.717 26.1371 39.7047 25.8176ZM26.4051 16.417C25.981 16.0053 25.4237 15.6169 24.8983 15.3151L23.6254 16.2835C23.4789 16.3821 23.6005 16.4979 23.6918 16.5849L23.6919 16.5849C23.7041 16.5965 23.7157 16.6076 23.7261 16.6181C23.9821 16.6142 24.2474 16.6 24.5173 16.5855C25.084 16.5552 25.6715 16.5237 26.2386 16.5838L26.4051 16.417ZM18.6685 19.487C17.6215 18.8047 16.3218 19.3171 15.2831 19.7265C15.1699 19.7711 15.0599 19.8145 14.9536 19.855C14.8531 18.8422 14.4404 17.9195 13.58 17.2521C13.5577 17.241 13.5331 17.2267 13.5071 17.2115C13.4357 17.1699 13.3534 17.1219 13.2772 17.1171C13.215 17.1132 13.1558 17.1383 13.1098 17.2175C13.4277 19.1669 12.4501 20.636 11.4791 22.095C11.259 22.4259 11.0391 22.7562 10.8348 23.0915C11.2028 23.3912 11.7941 23.3465 12.2405 23.2583C12.5139 23.1494 12.7842 23.0216 13.0558 22.8933C13.9482 22.4715 14.8538 22.0435 15.9235 22.2571C16.3362 21.5563 17.0293 20.8775 17.5977 20.3214C17.7328 20.2048 17.8875 20.1049 18.0407 20.0059C18.2813 19.8505 18.5179 19.6976 18.6685 19.487ZM22.4523 21.2903C22.2296 21.3896 22.1961 21.1328 22.2185 20.9888C22.1736 20.8222 22.275 20.6896 22.4203 20.6574C22.5185 20.6346 22.6204 20.6201 22.7207 20.6165C23.1556 20.6003 23.5836 20.7638 23.7917 21.0895V21.2241C23.692 21.2153 23.576 21.1826 23.453 21.1479L23.453 21.1479C23.1082 21.0507 22.7078 20.9378 22.4523 21.2903ZM27.6764 19.5558C27.3646 18.8659 26.6502 18.5867 26.0022 18.4198C25.6843 18.3808 25.3545 18.3545 25.0274 18.3513L25.012 18.3511H25.0119C24.9558 18.3506 24.8998 18.35 24.8438 18.3513C23.929 18.3697 23.0548 18.6038 22.5207 19.3544C22.5006 19.41 22.4626 19.4714 22.4231 19.5353C22.312 19.715 22.1891 19.9137 22.4199 20.0538L22.5305 20.0466C23.2058 20.0018 23.9501 19.9525 24.3944 20.5226C24.3944 20.6677 24.4199 20.8258 24.4455 20.9843L24.4455 20.9843C24.5142 21.4097 24.5833 21.8377 24.1605 22.0241C23.9109 21.7938 23.6374 21.8536 23.3589 21.9145C23.1011 21.9708 22.839 22.0281 22.5875 21.857C22.3416 21.7121 22.186 21.8811 22.0852 22.0925C21.9398 23.4715 22.6645 24.9936 23.9589 25.7609C24.4835 25.9495 25.1888 26.1288 25.7363 25.8613C27.0532 25.2501 27.5987 23.8493 27.8441 22.5587C27.8394 22.5237 27.8357 22.4841 27.8316 22.4417C27.8073 22.1863 27.7736 21.8328 27.4771 21.8228C27.0942 22.0643 26.5392 21.929 26.1277 21.8287L26.1036 21.8228C25.9871 21.8603 25.9235 21.9609 25.8587 22.0632C25.7876 22.1758 25.715 22.2905 25.5692 22.3259L25.3996 22.191C25.2542 21.58 25.1646 20.7121 25.7345 20.2893C26.3712 20.0334 27.119 19.9217 27.7774 20.1225C27.8595 19.9813 27.8022 19.8603 27.7448 19.7391C27.7163 19.6789 27.6878 19.6186 27.6764 19.5558ZM26.9312 20.6552C26.9554 20.6542 26.9797 20.6533 27.0044 20.6526C27.3158 20.6465 27.641 20.6701 27.7773 20.9226C27.7754 20.9478 27.775 20.9738 27.7747 20.9998C27.7731 21.1127 27.7716 21.2273 27.6443 21.2903L27.6381 21.2879C27.2145 21.1218 26.6265 20.8912 26.2043 21.2241C26.0328 20.8597 26.3117 20.8035 26.5757 20.7503C26.6906 20.7271 26.8026 20.7045 26.8735 20.6574C26.8928 20.6568 26.9119 20.656 26.9311 20.6552H26.9311H26.9311H26.9312ZM31.8639 15.9491C31.3135 15.92 30.8227 16.1178 30.332 16.3156C30.0861 16.4146 29.8402 16.5137 29.5868 16.5843C29.5474 16.1996 29.7067 15.802 29.8652 15.4064C29.9719 15.14 30.0784 14.8744 30.1234 14.6143C29.113 14.6791 28.2755 15.1897 27.4444 15.6963C27.266 15.8051 27.0879 15.9136 26.9084 16.0176C26.6727 15.4504 26.4381 14.8828 26.2045 14.3148L27.5439 13.0464L27.5782 12.8792L25.7689 12.7788C25.6345 12.544 25.5352 12.2884 25.4361 12.0336L25.4361 12.0336C25.3056 11.6977 25.1756 11.3631 24.9662 11.0785C24.8155 11.3622 24.6896 11.6541 24.5636 11.946L24.5636 11.946L24.5636 11.946C24.4377 12.2379 24.3118 12.5297 24.1612 12.813L22.3542 12.9137V13.0464L23.7257 14.2806C23.7127 14.3297 23.6998 14.3792 23.6868 14.4289C23.5323 15.0205 23.3702 15.6414 22.9895 16.0837C22.8543 16.0029 22.7193 15.921 22.5842 15.8389L22.5842 15.8389C21.9168 15.4336 21.2455 15.0259 20.5129 14.7488L20.4751 14.7366C20.2662 14.6687 19.9877 14.5782 19.8089 14.7146C19.8542 14.814 19.9024 14.9146 19.9511 15.0163L19.9512 15.0167L19.9513 15.0168C20.2024 15.5411 20.4671 16.0936 20.4121 16.653C20.2068 16.6153 20.0259 16.5255 19.8461 16.4363C19.7032 16.3653 19.5609 16.2947 19.4076 16.2509C19.3235 16.228 19.2361 16.2007 19.147 16.1728C18.7976 16.0634 18.4206 15.9455 18.1005 16.0521C18.7704 16.9859 19.3171 17.9634 19.5062 19.0873C21.7283 18.0183 24.3198 17.4304 27.0097 17.8873C28.0414 18.0508 29.0051 18.4233 29.9389 18.7842L29.9391 18.7843C30.1466 18.8645 30.3527 18.9441 30.5577 19.0208C30.5922 18.0976 31.0585 17.3165 31.5063 16.5664C31.6301 16.359 31.7525 16.1541 31.8639 15.9491ZM36.7436 22.8192C36.3875 22.6345 36.0335 22.4508 35.6799 22.3576C35.1778 22.2803 34.5879 22.2136 34.1067 22.2917C33.4158 21.2246 32.4888 20.2227 31.3616 19.6223C31.4219 19.2886 31.8527 19.2393 32.1999 19.1995C32.2341 19.1956 32.2674 19.1918 32.2996 19.1878C33.2929 19.0889 34.1628 19.4985 34.9782 19.9215C35.082 19.6778 35.1457 19.4134 35.2094 19.1493C35.2414 19.0165 35.2733 18.8837 35.3104 18.7537C35.5797 18.0969 36.1069 17.4286 36.7874 17.1514C36.9318 17.1734 37.0323 17.3302 36.9869 17.4851C36.6383 19.3059 37.5751 20.6974 38.501 22.0728L38.501 22.0728L38.501 22.0728C38.7288 22.4113 38.956 22.7488 39.1632 23.0915C38.3331 23.6439 37.5331 23.2288 36.7436 22.8192ZM23.7596 23.9258L23.7917 24.1269C23.9381 24.224 24.0504 24.3439 24.1579 24.4585C24.3708 24.6855 24.5647 24.8923 24.9659 24.8627C25.5013 24.8943 25.903 24.3943 26.1697 23.9941C25.8249 23.9466 25.4443 23.9567 25.0534 23.967H25.0534C24.6233 23.9784 24.1807 23.9901 23.7596 23.9258ZM24.3624 23.1238C24.3661 23.0893 24.3697 23.0548 24.3625 23.0253C24.5415 22.9026 24.7889 22.8334 25.0274 22.8334C25.2661 22.8334 25.4934 22.904 25.6327 23.0595C25.499 23.3431 25.1638 23.3165 24.8498 23.2915C24.6956 23.2793 24.5466 23.2674 24.4289 23.2929C24.3476 23.2628 24.355 23.1932 24.3624 23.1238Z" fill="#106E33"/>
<path id="Icon_4" opacity="0.99" d="M23.7604 22.6392H26.2078V23.6413H23.7604V22.6392Z" fill="white"/>
<path id="Icon_5" d="M24.2125 23.1751C24.5287 23.2497 24.607 23.3614 24.8568 23.3927C25.1227 23.388 25.0844 23.3342 25.5476 23.1748C25.5782 23.1641 25.62 23.0971 25.5682 23.0458C25.2803 22.7612 25.0814 22.9646 24.9012 22.97C24.6617 22.9725 24.4373 22.7658 24.2035 23.0346C24.1637 23.0891 24.1429 23.1428 24.2125 23.1751Z" fill="#106E33"/>
</g>
</g>
<defs>
<clipPath id="clip0_1_2809">
<rect width="50" height="50" fill="white"/>
</clipPath>
</defs>
</svg>
